<svg width="66" height="104" viewBox="0 0 66 104" fill="none" xmlns="http://www.w3.org/2000/svg">
<path d="M62.9129 66.7255C62.9129 85.6765 52.2582 101.039 32.9564 101.039C13.6547 101.039 3 85.6765 3 66.7255C3 47.7745 32.9564 3 32.9564 3C32.9564 3 62.9129 47.7745 62.9129 66.7255Z" fill="#D23F3F" stroke="#D23F3F" stroke-width="5" stroke-linecap="round" stroke-linejoin="round"/>
<path d="M36.5626 71.35H27.4426L25.7626 76H22.8826L30.4426 55.21H33.5926L41.1226 76H38.2426L36.5626 71.35ZM35.7826 69.13L32.0026 58.57L28.2226 69.13H35.7826Z" fill="white"/>
<path d="M49 54.9456C31.69 54.9456 41.5816 54.9456 44.0544 54.9456M44.0544 54.9456L44.0543 54M44.0544 54.9456L44.0543 55.5" stroke="white" stroke-width="2"/>
</svg>
