<svg width="66" height="104" viewBox="0 0 66 104" fill="none" xmlns="http://www.w3.org/2000/svg">
<path d="M62.9129 66.7255C62.9129 85.6765 52.2582 101.039 32.9564 101.039C13.6547 101.039 3 85.6765 3 66.7255C3 47.7745 32.9564 3 32.9564 3C32.9564 3 62.9129 47.7745 62.9129 66.7255Z" fill="#D23F3F" stroke="#D23F3F" stroke-width="5" stroke-linecap="round" stroke-linejoin="round"/>
<path d="M26.8634 72.35H17.7434L16.0634 77H13.1834L20.7434 56.21H23.8934L31.4234 77H28.5434L26.8634 72.35ZM26.0834 70.13L22.3034 59.57L18.5234 70.13H26.0834ZM45.1882 66.23C45.9482 66.35 46.6382 66.66 47.2582 67.16C47.8982 67.66 48.3982 68.28 48.7582 69.02C49.1382 69.76 49.3282 70.55 49.3282 71.39C49.3282 72.45 49.0582 73.41 48.5182 74.27C47.9782 75.11 47.1882 75.78 46.1482 76.28C45.1282 76.76 43.9182 77 42.5182 77H34.7182V56.09H42.2182C43.6382 56.09 44.8482 56.33 45.8482 56.81C46.8482 57.27 47.5982 57.9 48.0982 58.7C48.5982 59.5 48.8482 60.4 48.8482 61.4C48.8482 62.64 48.5082 63.67 47.8282 64.49C47.1682 65.29 46.2882 65.87 45.1882 66.23ZM37.4482 65.12H42.0382C43.3182 65.12 44.3082 64.82 45.0082 64.22C45.7082 63.62 46.0582 62.79 46.0582 61.73C46.0582 60.67 45.7082 59.84 45.0082 59.24C44.3082 58.64 43.2982 58.34 41.9782 58.34H37.4482V65.12ZM42.2782 74.75C43.6382 74.75 44.6982 74.43 45.4582 73.79C46.2182 73.15 46.5982 72.26 46.5982 71.12C46.5982 69.96 46.1982 69.05 45.3982 68.39C44.5982 67.71 43.5282 67.37 42.1882 67.37H37.4482V74.75H42.2782Z" fill="white"/>
<path d="M59 53.9456C41.69 53.9456 51.5816 53.9456 54.0544 53.9456M54.0544 53.9456L54.0543 53M54.0544 53.9456L54 54" stroke="white" stroke-width="2"/>
</svg>
