<svg width="66" height="104" viewBox="0 0 66 104" fill="none" xmlns="http://www.w3.org/2000/svg">
<path d="M62.9129 66.7255C62.9129 85.6765 52.2582 101.039 32.9564 101.039C13.6547 101.039 3 85.6765 3 66.7255C3 47.7745 32.9564 3 32.9564 3C32.9564 3 62.9129 47.7745 62.9129 66.7255Z" fill="#D23F3F" stroke="#D23F3F" stroke-width="5" stroke-linecap="round" stroke-linejoin="round"/>
<path d="M34.5808 66.23C35.3408 66.35 36.0308 66.66 36.6508 67.16C37.2908 67.66 37.7908 68.28 38.1508 69.02C38.5308 69.76 38.7208 70.55 38.7208 71.39C38.7208 72.45 38.4508 73.41 37.9108 74.27C37.3708 75.11 36.5808 75.78 35.5408 76.28C34.5208 76.76 33.3108 77 31.9108 77H24.1108V56.09H31.6108C33.0308 56.09 34.2408 56.33 35.2408 56.81C36.2408 57.27 36.9908 57.9 37.4908 58.7C37.9908 59.5 38.2408 60.4 38.2408 61.4C38.2408 62.64 37.9008 63.67 37.2208 64.49C36.5608 65.29 35.6808 65.87 34.5808 66.23ZM26.8408 65.12H31.4308C32.7108 65.12 33.7008 64.82 34.4008 64.22C35.1008 63.62 35.4508 62.79 35.4508 61.73C35.4508 60.67 35.1008 59.84 34.4008 59.24C33.7008 58.64 32.6908 58.34 31.3708 58.34H26.8408V65.12ZM31.6708 74.75C33.0308 74.75 34.0908 74.43 34.8508 73.79C35.6108 73.15 35.9908 72.26 35.9908 71.12C35.9908 69.96 35.5908 69.05 34.7908 68.39C33.9908 67.71 32.9208 67.37 31.5808 67.37H26.8408V74.75H31.6708Z" fill="white"/>
<path d="M49 55.4456C31.69 55.4456 41.5816 55.4456 44.0544 55.4456M44.0544 55.4456L44.0543 55M44.0544 55.4456V56" stroke="white" stroke-width="2"/>
</svg>
