<svg width="66" height="104" viewBox="0 0 66 104" fill="none" xmlns="http://www.w3.org/2000/svg">
<path d="M62.9129 66.7255C62.9129 85.6765 52.2582 101.039 32.9564 101.039C13.6547 101.039 3 85.6765 3 66.7255C3 47.7745 32.9564 3 32.9564 3C32.9564 3 62.9129 47.7745 62.9129 66.7255Z" fill="#D23F3F" stroke="#D23F3F" stroke-width="5" stroke-linecap="round" stroke-linejoin="round"/>
<path d="M31.998 76.21C30.058 76.21 28.288 75.76 26.688 74.86C25.088 73.94 23.818 72.67 22.878 71.05C21.958 69.41 21.498 67.57 21.498 65.53C21.498 63.49 21.958 61.66 22.878 60.04C23.818 58.4 25.088 57.13 26.688 56.23C28.288 55.31 30.058 54.85 31.998 54.85C33.958 54.85 35.738 55.31 37.338 56.23C38.938 57.13 40.198 58.39 41.118 60.01C42.038 61.63 42.498 63.47 42.498 65.53C42.498 67.59 42.038 69.43 41.118 71.05C40.198 72.67 38.938 73.94 37.338 74.86C35.738 75.76 33.958 76.21 31.998 76.21ZM31.998 73.84C33.458 73.84 34.768 73.5 35.928 72.82C37.108 72.14 38.028 71.17 38.688 69.91C39.368 68.65 39.708 67.19 39.708 65.53C39.708 63.85 39.368 62.39 38.688 61.15C38.028 59.89 37.118 58.92 35.958 58.24C34.798 57.56 33.478 57.22 31.998 57.22C30.518 57.22 29.198 57.56 28.038 58.24C26.878 58.92 25.958 59.89 25.278 61.15C24.618 62.39 24.288 63.85 24.288 65.53C24.288 67.19 24.618 68.65 25.278 69.91C25.958 71.17 26.878 72.14 28.038 72.82C29.218 73.5 30.538 73.84 31.998 73.84Z" fill="white"/>
<path d="M50 52.9456C32.69 52.9456 42.5816 52.9456 45.0544 52.9456M45.0544 52.9456L45.0543 48M45.0544 52.9456L45.0543 57.8912" stroke="white" stroke-width="2"/>
</svg>
